<?xml version="1.0" encoding="utf-8"?>
<!-- Generator: Adobe Illustrator 17.0.0, SVG Export Plug-In . SVG Version: 6.00 Build 0)  -->
<!DOCTYPE svg PUBLIC "-//W3C//DTD SVG 1.1//EN" "http://www.w3.org/Graphics/SVG/1.1/DTD/svg11.dtd">
<svg version="1.1" id="Capa_1" xmlns="http://www.w3.org/2000/svg" xmlns:xlink="http://www.w3.org/1999/xlink" x="0px" y="0px"
	 width="64px" height="64px" viewBox="0 0 64 64" enable-background="new 0 0 64 64" xml:space="preserve">
<path d="M33.783,5.797c-0.513,0-0.893,0.033-1.092,0.055c-0.208-0.025-0.614-0.062-1.16-0.062c-1.73,0-5.019,0.387-7.609,2.983
	c-2.408,2.412-3.624,6.125-3.616,11.033c0.016,8.423,3.272,13.382,6.001,16.059c2.986,2.929,5.973,3.83,6.099,3.867
	c0.092,0.027,0.187,0.041,0.282,0.041c0.086,0,0.172-0.011,0.256-0.033c0.134-0.036,13.388-3.737,12.768-19.974
	C45.216,6.805,36.456,5.797,33.783,5.797z M32.703,37.724c-1.688-0.609-10.373-4.405-10.398-17.922
	c-0.008-4.358,1.012-7.594,3.031-9.616C27.417,8.101,30.11,7.79,31.53,7.79c0.611,0,0.999,0.058,1,0.058
	c0.099,0.015,0.203,0.016,0.303,0.001c0.003,0,0.367-0.052,0.95-0.052c2.848,0,9.515,1.174,9.929,12.044
	C44.228,33.367,34.521,37.138,32.703,37.724z"/>
<path d="M43.339,36.019c-0.14,0.534,0.18,1.081,0.714,1.221c2.681,0.703,9.224,2.831,12.823,7.554v10.887H9.753V44.794
	c3.554-4.661,10.007-6.799,12.652-7.509c0.533-0.143,0.85-0.692,0.707-1.225c-0.143-0.533-0.688-0.853-1.225-0.707
	c-3.6,0.966-10.198,3.358-13.943,8.523c-0.124,0.17-0.19,0.376-0.19,0.587v12.218c0,0.552,0.448,1,1,1h49.123c0.552,0,1-0.448,1-1
	V44.463c0-0.211-0.066-0.417-0.191-0.587c-3.933-5.426-11.189-7.801-14.126-8.571C44.027,35.165,43.478,35.485,43.339,36.019z"/>
</svg>
